<svg width="180" height="110" viewBox="0 0 180 110" fill="none" xmlns="http://www.w3.org/2000/svg">
<g clip-path="url(#clip0_114_54)">
<path d="M64.9923 49.0747L42.6285 55.6545C40.7481 56.2074 39.2244 56.1263 38.3679 55.4221C36.1466 53.6292 37.8292 50.0383 38.4446 48.9675C37.358 50.2797 36.2704 51.5908 35.4295 53.0312C34.1064 55.2799 33.5381 57.7339 34.4344 59.3215C36.044 62.1622 39.899 60.8641 42.3531 59.7052L64.9923 49.0747Z" fill="#262626"/>
<path d="M125.88 62C125.953 62 126.017 61.9519 126.045 61.8798L128.871 54.3775C129.013 53.9999 129.39 53.7785 129.775 53.8777C130.132 53.9698 130.367 54.3474 130.367 54.7461V59.7663C130.367 60.793 130.994 61.7366 131.92 61.9509C132.761 62.1462 133.596 61.7376 134.026 60.9713L137.968 53.9368C138.167 53.5802 138.579 53.4119 138.968 53.5742C139.285 53.7074 139.477 54.063 139.479 54.4316L139.534 61.8077C139.535 61.9139 139.614 62 139.712 62H145.822C145.921 62 146.001 61.9129 146 61.8047L145.903 48.1923C145.903 48.0861 145.824 48 145.725 48H139.985C139.922 48 139.864 48.0361 139.831 48.0952L136.106 54.8943C135.908 55.2559 135.493 55.4292 135.1 55.2659C134.781 55.1317 134.588 54.7721 134.588 54.3995V48.1943C134.588 48.0871 134.508 48 134.409 48H125.239C125.167 48 125.103 48.0461 125.075 48.1172L120.255 60.1349C120.156 60.3823 119.815 60.3052 119.815 60.0358V48.1943C119.815 48.0871 119.735 48 119.635 48H106.917C106.844 48 106.78 48.0481 106.752 48.1212L103.927 55.6235C103.785 56.0011 103.408 56.2225 103.024 56.1243C102.665 56.0312 102.43 55.6546 102.43 55.2549V50.2337C102.43 49.208 101.803 48.2634 100.877 48.0491C100.036 47.8538 99.2018 48.2624 98.7722 49.0287L94.8304 56.0642C94.6308 56.4208 94.2187 56.5901 93.8296 56.4268C93.5127 56.2946 93.3214 55.938 93.3177 55.5694L93.2632 48.1933C93.2632 48.0871 93.1828 48.001 93.0849 48.001H69.8479C67.6072 48.001 66.6666 51.1021 68.4712 52.5425L75.9177 58.4912C76.5812 59.0221 76.2356 60.162 75.4114 60.162H67.3697C67.2709 60.162 67.1914 60.2491 67.1914 60.3563V61.8077C67.1914 61.9149 67.2709 62.001 67.3697 62.001H83.2442C85.484 62.001 86.4246 58.9009 84.6219 57.4595L77.1799 51.5108C76.5165 50.9799 76.863 49.84 77.6863 49.84H86.809L86.895 61.8097C86.895 61.9159 86.9754 62.002 87.0733 62.002H92.8132C92.8761 62.002 92.9343 61.9659 92.9675 61.9068L96.6931 55.1067C96.8909 54.7451 97.3067 54.5718 97.6985 54.7361C98.0191 54.8693 98.2113 55.2299 98.2113 55.6025V61.8087C98.2113 61.9159 98.2908 62.002 98.3896 62.002H107.56C107.632 62.002 107.696 61.9569 107.725 61.8848L112.497 49.9853C112.596 49.7379 112.938 49.814 112.938 50.0844V61.8077C112.938 61.9149 113.018 62.001 113.116 62.001H125.883L125.88 62Z" fill="#262626"/>
</g>
<defs>
<clipPath id="clip0_114_54">
<rect width="112" height="14" fill="white" transform="translate(34 48)"/>
</clipPath>
</defs>
</svg>
