<?xml version="1.0" encoding="UTF-8"?>
<svg width="180px" height="110px" viewBox="0 0 180 110" version="1.1" xmlns="http://www.w3.org/2000/svg" xmlns:xlink="http://www.w3.org/1999/xlink">
    <title>THPB_Mango</title>
    <g id="THPB_Mango" stroke="none" stroke-width="1" fill="none" fill-rule="evenodd">
        <polygon id="Fill-1" fill="#262626" points="56.5952018 47.9070258 52.2776961 54.6101043 53.7315501 56.7997766 56.6432631 52.3720209 56.6432631 62.1771351 59.1504603 62.1771351 59.1504603 47.9070258"></polygon>
        <polygon id="Fill-2" fill="#262626" points="42.6922727 47.9070258 42.6922727 62.1771351 45.2114852 62.1771351 45.2114852 52.3720209 50.9267734 61.074851 52.3806274 58.8516634 45.2355158 47.9070258"></polygon>
        <polygon id="Fill-3" fill="#262626" points="69.2761727 47.9070258 69.2761727 47.9144737 73.0810247 55.4815045 68.0265793 55.4815045 69.3442596 53.0162612 67.9665026 50.3350298 61.5663411 62.1771351 64.397952 62.1771351 66.7890011 57.7531033 74.2545212 57.7531033 76.5774835 62.1771351 79.6053446 62.1771351 72.007656 47.9070258"></polygon>
        <polygon id="Fill-4" fill="#262626" points="93.8523125 47.9070258 93.8523125 54.8409881 96.3755301 57.2466485 96.3755301 47.9070258"></polygon>
        <polygon id="Fill-5" fill="#262626" points="81.6543575 47.9070258 81.6543575 62.1771351 84.1735701 62.1771351 84.1735701 51.5155164 94.4947317 62.1771351 96.3771322 62.1771351 96.3771322 60.4455065 84.2176263 47.9070258"></polygon>
        <path d="M113.963559,51.8666832 C112.770037,50.6824727 110.919677,49.9227905 108.845031,49.9227905 C105.532808,49.9227905 102.797319,51.8592354 102.360763,54.3728898 L99.5892283,54.3728898 C99.949688,50.4739325 104.13903,47.5953327 108.873067,47.5953327 C111.696668,47.5953327 114.231901,48.5933466 115.934071,50.2058093 L113.963559,51.8666832 Z" id="Fill-6" fill="#262626"></path>
        <path d="M108.613136,60.1874379 C105.845606,60.1874379 103.490603,58.7574479 102.613485,56.765144 L99.7858791,56.765144 C100.723074,60.2023337 104.399763,62.5 108.769335,62.5 C109.782627,62.5 110.948113,62.4031778 111.913344,62.1760179 C114.108143,61.6583913 116.491182,60.3028798 116.491182,58.1653426 L116.491182,54.3743793 L108.581095,54.3743793 L108.573085,56.765144 L113.959954,56.765144 L113.959954,57.8450844 C113.959954,59.0441907 112.085564,59.7368421 110.940103,59.9826216 C110.315306,60.1092354 109.5263,60.1874379 108.881478,60.1874379 L108.613136,60.1874379 Z" id="Fill-8" fill="#262626"></path>
        <path d="M137.307727,55.0595829 C137.307727,50.7994042 133.254559,47.5 128.27621,47.5 C123.458066,47.5 119.220663,50.6504469 119.220663,54.8286991 C119.220663,58.7686197 122.544902,61.9227905 127.026617,62.4292453 L127.026617,60.0384806 C124.094878,59.5841609 121.876049,57.4950348 121.876049,54.9851043 C121.876049,52.1400199 124.72368,49.8274578 128.240164,49.8274578 C131.752643,49.8274578 134.60428,52.1400199 134.60428,54.9851043 C134.60428,57.4764151 132.421496,59.5469215 129.525804,60.0310328 L129.525804,62.4217974 C133.823284,61.9227905 137.307727,58.8840616 137.307727,55.0595829" id="Fill-11" fill="#262626"></path>
    </g>
</svg>