<?xml version="1.0" encoding="UTF-8"?>
<svg width="180px" height="110px" viewBox="0 0 180 110" version="1.1" xmlns="http://www.w3.org/2000/svg" xmlns:xlink="http://www.w3.org/1999/xlink">
    <title>THPB_OldNavy</title>
    <g id="THPB_OldNavy" stroke="none" stroke-width="1" fill="none" fill-rule="evenodd">
        <polygon id="Fill-1" fill="#262626" points="99.8106244 56.2337231 102.1657 56.2337231 100.979034 52.1088646"></polygon>
        <path d="M60.9898496,51.8277631 C59.3212146,51.8277631 59.0291122,53.9801584 59.0291122,55.0495662 C59.0291122,56.1053942 59.5366401,58.1423614 60.9861983,58.1423614 C62.4394078,58.1423614 62.9506202,56.1087891 62.9506202,55.0529611 C62.9542383,53.9801584 62.6584846,51.8277631 60.9898496,51.8277631" id="Fill-2" fill="#262626"></path>
        <path d="M77.5469442,52.018559 L76.944483,52.018559 L76.944483,58.0174274 L77.5359904,58.0174274 C78.1749644,58.0174274 78.861405,57.9597133 79.3032099,57.2773293 C79.6865943,56.6492644 79.8837634,55.8548472 79.8837634,55.002716 C79.8837634,54.1505847 79.6865943,53.3697473 79.3032099,52.7484723 C78.8650563,52.0660883 78.1822669,52.018559 77.5469442,52.018559" id="Fill-4" fill="#262626"></path>
        <path d="M120.356742,56.7976235 L120.356742,59.9209732 L117.665749,59.9209732 L117.665749,56.7976235 L114.518346,50.1231611 L117.172826,50.1231611 L119.013071,54.407582 L120.860619,50.1231611 L123.511448,50.1231611 L120.356742,56.7976235 Z M110.998512,59.9209732 L107.792688,59.9209732 L105.083438,50.1231611 L107.759826,50.1231611 L109.399251,56.957186 L111.04963,50.1231611 L113.722367,50.1231611 L110.998512,59.9209732 Z M103.23589,59.9209732 L102.684547,58.0164089 L99.3034616,58.0164089 L98.7594209,59.9209732 L96.3021094,59.9209732 L99.1318514,50.1231611 L102.80869,50.1231611 L105.645735,59.9209732 L103.23589,59.9209732 Z M94.9511358,59.9209732 L92.5303371,59.9209732 L89.1748107,54.3193135 L89.1711594,59.9209732 L86.7467095,59.9209732 L86.7467095,50.1231611 L89.1711594,50.1231611 L92.5303371,55.8029046 L92.5303371,50.1231611 L94.9511358,50.1231611 L94.9511358,59.9209732 Z M82.4783631,55.0152773 L82.4783631,55.0662014 L82.4783631,55.0797812 L82.4783631,55.0797812 C82.4601067,56.4954734 82.0876761,57.8670313 81.1456458,58.8447756 C80.1561489,59.8972086 79.100929,59.9243682 77.7791656,59.9209732 L74.4090341,59.9209732 L74.4090341,50.1231611 L77.7864682,50.1231611 C79.1082316,50.1231611 80.1671028,50.129951 81.1492971,51.182384 C82.0949787,52.1635232 82.4637579,53.5452659 82.4783631,54.967748 L82.4783631,54.967748 L82.4783631,55.0152773 Z M73.0580605,59.9243682 L66.8216741,59.9243682 L66.8216741,50.1231611 L69.2351703,50.1231611 L69.2351703,58.0164089 L73.0580605,58.0164089 L73.0580605,59.9243682 Z M60.9832773,60.0499811 L60.979626,60.0499811 C58.215607,60.0499811 56.4922028,57.9281403 56.4849003,55.0458318 L56.4849003,55.0254621 C56.4849003,51.990381 58.2010019,49.9500189 60.9869286,49.9534096 C63.769204,49.9534096 65.4853056,51.9971709 65.4816602,55.032252 C65.4816602,57.9213504 63.7545989,60.0499811 60.9832773,60.0499811 L60.9832773,60.0499811 Z M89.9963487,41.5 C65.3100442,41.5 45.2937269,47.5463976 45.2937269,54.9983025 C45.2937269,62.4569974 65.3100442,68.5 89.9963487,68.5 C114.682653,68.5 134.706273,62.4569974 134.706273,54.9983025 C134.706273,47.5463976 114.682653,41.5 89.9963487,41.5 L89.9963487,41.5 Z" id="Fill-6" fill="#262626"></path>
    </g>
</svg>